<svg xmlns="http://www.w3.org/2000/svg" width="1280" height="628" viewBox="0 0 1280 628"><defs>
<linearGradient id="hw-screw" x1="0" y1="0" x2="1" y2="1"><stop offset="0" stop-color="#f2f2f2"/><stop offset="1" stop-color="#7a7a7a"/></linearGradient>
<filter id="hw-brush" x="0" y="0" width="100%" height="100%"><feTurbulence type="fractalNoise" baseFrequency="0.0025 0.8" numOctaves="2" seed="5"/>
 <feColorMatrix values="0 0 0 0 1  0 0 0 0 1  0 0 0 0 1  0 0 0 0.20 0"/></filter>
<filter id="hw-brushd" x="0" y="0" width="100%" height="100%"><feTurbulence type="fractalNoise" baseFrequency="0.0025 0.8" numOctaves="2" seed="9"/>
 <feColorMatrix values="0 0 0 0 0  0 0 0 0 0  0 0 0 0 0  0 0 0 0.16 0"/></filter>
<filter id="hw-grain" x="0" y="0" width="100%" height="100%"><feTurbulence type="fractalNoise" baseFrequency="0.85" numOctaves="2" seed="3"/>
 <feColorMatrix values="0 0 0 0 0  0 0 0 0 0  0 0 0 0 0  0 0 0 0.07 0"/></filter>
<filter id="hw-wood" x="0" y="0" width="100%" height="100%"><feTurbulence type="fractalNoise" baseFrequency="0.006 0.18" numOctaves="4" seed="21"/>
 <feColorMatrix values="0 0 0 0 0.30  0 0 0 0 0.15  0 0 0 0 0.05  0 0 0 0.85 0"/></filter>
<filter id="hw-soft" x="-20%" y="-20%" width="140%" height="140%"><feGaussianBlur stdDeviation="2"/></filter>
<filter id="hw-shadow" x="-30%" y="-30%" width="160%" height="160%"><feDropShadow dx="0" dy="2" stdDeviation="2" flood-opacity="0.45"/></filter>
<linearGradient id="hw-vshade" x1="0" y1="0" x2="0" y2="1"><stop offset="0" stop-color="#fff" stop-opacity="0.10"/><stop offset="1" stop-color="#000" stop-opacity="0.14"/></linearGradient>
</defs>
<rect x="0" y="0" width="1280" height="628" rx="0" fill="#0a0a0a"/>
<rect x="6" y="4" width="1268" height="620" rx="8" fill="#141414"/>
<rect x="6" y="4" width="1268" height="620" filter="url(#hw-grain)"/>
<rect x="6" y="10" width="1268" height="30" rx="0" fill="#3a8fd8"/>
<rect x="6" y="46" width="1268" height="4" rx="0" fill="#3a8fd8"/>
<rect x="6" y="56" width="1268" height="2" rx="0" fill="#3a8fd8"/>
<text x="40" y="25" font-size="34" fill="#fff" text-anchor="start" dominant-baseline="central" style="font-family:FreeSans, Liberation Sans, Titillium Web, sans-serif;font-weight:700;letter-spacing:0.02em;font-style:italic;" transform="translate(40 0) scale(1.15 1) translate(-40 0)" stroke="#0a0a0a" stroke-width="1">MIDIVERB</text>
<text x="1240" y="25" font-size="18" fill="#fff" text-anchor="end" dominant-baseline="central" style="font-family:FreeSans, Liberation Sans, Titillium Web, sans-serif;font-weight:700;letter-spacing:0.1em;font-style:italic;">DIGITAL REVERB</text>
<rect x="14" y="400" width="1252" height="216" rx="6" fill="#1b1b1b" stroke="#2c2c2c" stroke-width="1"/>
<rect x="14" y="400" width="1252" height="6" rx="0" fill="#3a8fd8"/>
<g stroke="#bdbdbd" stroke-width="1.5" stroke-linecap="round"><line x1="74.5" y1="525.5" x2="70.3" y2="529.7"/><line x1="65.8" y1="511.1" x2="60.1" y2="513.0"/><line x1="64.4" y1="494.4" x2="58.5" y2="493.4"/><line x1="70.9" y1="478.8" x2="66.0" y2="475.3"/><line x1="83.7" y1="467.9" x2="80.9" y2="462.6"/><line x1="100.0" y1="464.0" x2="100.0" y2="458.0"/><line x1="116.3" y1="467.9" x2="119.1" y2="462.6"/><line x1="129.1" y1="478.8" x2="134.0" y2="475.3"/><line x1="135.6" y1="494.4" x2="141.5" y2="493.4"/><line x1="134.2" y1="511.1" x2="139.9" y2="513.0"/><line x1="125.5" y1="525.5" x2="129.7" y2="529.7"/></g>
<g stroke="#bdbdbd" stroke-width="1.5" stroke-linecap="round"><line x1="224.5" y1="525.5" x2="220.3" y2="529.7"/><line x1="215.8" y1="511.1" x2="210.1" y2="513.0"/><line x1="214.4" y1="494.4" x2="208.5" y2="493.4"/><line x1="220.9" y1="478.8" x2="216.0" y2="475.3"/><line x1="233.7" y1="467.9" x2="230.9" y2="462.6"/><line x1="250.0" y1="464.0" x2="250.0" y2="458.0"/><line x1="266.3" y1="467.9" x2="269.1" y2="462.6"/><line x1="279.1" y1="478.8" x2="284.0" y2="475.3"/><line x1="285.6" y1="494.4" x2="291.5" y2="493.4"/><line x1="284.2" y1="511.1" x2="289.9" y2="513.0"/><line x1="275.5" y1="525.5" x2="279.7" y2="529.7"/></g>
<g stroke="#bdbdbd" stroke-width="1.5" stroke-linecap="round"><line x1="374.5" y1="525.5" x2="370.3" y2="529.7"/><line x1="365.8" y1="511.1" x2="360.1" y2="513.0"/><line x1="364.4" y1="494.4" x2="358.5" y2="493.4"/><line x1="370.9" y1="478.8" x2="366.0" y2="475.3"/><line x1="383.7" y1="467.9" x2="380.9" y2="462.6"/><line x1="400.0" y1="464.0" x2="400.0" y2="458.0"/><line x1="416.3" y1="467.9" x2="419.1" y2="462.6"/><line x1="429.1" y1="478.8" x2="434.0" y2="475.3"/><line x1="435.6" y1="494.4" x2="441.5" y2="493.4"/><line x1="434.2" y1="511.1" x2="439.9" y2="513.0"/><line x1="425.5" y1="525.5" x2="429.7" y2="529.7"/></g>
<circle cx="100" cy="590" r="4" fill="#4a0f0a" stroke="#1a0503" stroke-width="0.8"/><circle cx="98.8" cy="588.8" r="1.4" fill="#fff" opacity="0.25"/>
<text x="116" y="590" font-size="10" fill="#e8e8e8" text-anchor="start" dominant-baseline="central" style="font-family:FreeSans, Liberation Sans, Titillium Web, sans-serif;font-weight:700;letter-spacing:0em;">CLIP</text>
<rect x="520" y="440" width="240" height="110" rx="4" fill="#0c0c0c" stroke="#2c2c2c" stroke-width="1"/>
<rect x="536" y="456" width="208" height="78" rx="3" fill="#2a0604"/>
<text x="640" y="432" font-size="12" fill="#e8e8e8" text-anchor="middle" dominant-baseline="central" style="font-family:FreeSans, Liberation Sans, Titillium Web, sans-serif;font-weight:700;letter-spacing:0.14em;">PROGRAM</text>
<text x="820" y="456" font-size="11" fill="#e8e8e8" text-anchor="middle" dominant-baseline="central" style="font-family:FreeSans, Liberation Sans, Titillium Web, sans-serif;font-weight:700;letter-spacing:0em;">SELECT</text>
<g stroke="#bdbdbd" stroke-width="1.5" stroke-linecap="round"><line x1="794.5" y1="525.5" x2="790.3" y2="529.7"/><line x1="785.8" y1="511.1" x2="780.1" y2="513.0"/><line x1="784.4" y1="494.4" x2="778.5" y2="493.4"/><line x1="790.9" y1="478.8" x2="786.0" y2="475.3"/><line x1="803.7" y1="467.9" x2="800.9" y2="462.6"/><line x1="820.0" y1="464.0" x2="820.0" y2="458.0"/><line x1="836.3" y1="467.9" x2="839.1" y2="462.6"/><line x1="849.1" y1="478.8" x2="854.0" y2="475.3"/><line x1="855.6" y1="494.4" x2="861.5" y2="493.4"/><line x1="854.2" y1="511.1" x2="859.9" y2="513.0"/><line x1="845.5" y1="525.5" x2="849.7" y2="529.7"/></g>
<text x="1040" y="432" font-size="12" fill="#e8e8e8" text-anchor="middle" dominant-baseline="central" style="font-family:FreeSans, Liberation Sans, Titillium Web, sans-serif;font-weight:700;letter-spacing:0.14em;">UNIT</text>
<text x="100" y="444" font-size="12" fill="#e8e8e8" text-anchor="middle" dominant-baseline="central" style="font-family:FreeSans, Liberation Sans, Titillium Web, sans-serif;font-weight:700;letter-spacing:0.08em;">INPUT</text>
<text x="250" y="444" font-size="12" fill="#e8e8e8" text-anchor="middle" dominant-baseline="central" style="font-family:FreeSans, Liberation Sans, Titillium Web, sans-serif;font-weight:700;letter-spacing:0.08em;">MIX</text>
<text x="400" y="444" font-size="12" fill="#e8e8e8" text-anchor="middle" dominant-baseline="central" style="font-family:FreeSans, Liberation Sans, Titillium Web, sans-serif;font-weight:700;letter-spacing:0.08em;">OUTPUT</text>
</svg>