<svg xmlns="http://www.w3.org/2000/svg" width="1280" height="628" viewBox="0 0 1280 628">
<defs>
<filter id="brush" x="0" y="0" width="100%" height="100%"><feTurbulence type="fractalNoise" baseFrequency="0.002 0.9"
 numOctaves="2" seed="4"/><feColorMatrix values="0 0 0 0 1  0 0 0 0 1  0 0 0 0 1  0 0 0 0.16 0"/></filter>
<filter id="grain" x="0" y="0" width="100%" height="100%"><feTurbulence type="fractalNoise" baseFrequency="0.9"
 numOctaves="2" seed="7"/><feColorMatrix values="0 0 0 0 0  0 0 0 0 0  0 0 0 0 0  0 0 0 0.10 0"/></filter>
<filter id="woodf" x="0" y="0" width="100%" height="100%"><feTurbulence type="fractalNoise" baseFrequency="0.012 0.25"
 numOctaves="3" seed="11"/><feColorMatrix values="0 0 0 0 0.36  0 0 0 0 0.20  0 0 0 0 0.09  0 0 0 0.9 0"/></filter>
<linearGradient id="screw" x1="0" y1="0" x2="1" y2="1"><stop offset="0" stop-color="#eee"/><stop offset="1" stop-color="#777"/></linearGradient>
<linearGradient id="shade" x1="0" y1="0" x2="0" y2="1"><stop offset="0" stop-color="#fff" stop-opacity="0.07"/>
 <stop offset="1" stop-color="#000" stop-opacity="0.12"/></linearGradient>
</defs>
<rect width="1280" height="628" fill="#c8c7c3"/>
<rect width="1280" height="628" filter="url(#grain)"/>
<rect width="1280" height="628" fill="url(#shade)"/>
<rect x="12" y="58" width="321" height="562" rx="6" fill="#b9b8b4" stroke="#8f8e8a" stroke-width="1.5"/>
<rect x="343" y="58" width="647" height="562" rx="6" fill="#b9b8b4" stroke="#8f8e8a" stroke-width="1.5"/>
<rect x="1000" y="58" width="267" height="562" rx="6" fill="#b9b8b4" stroke="#8f8e8a" stroke-width="1.5"/>
<circle cx="666.5" cy="347" r="257" fill="#d3d2ce" stroke="#9a9995" stroke-width="3"/><circle cx="666.5" cy="347" r="243" fill="none" stroke="#b5b4b0" stroke-width="2"/>
<text x="666.5" y="570" font-family="Titillium Web, DejaVu Sans, sans-serif" font-size="13" font-weight="600" fill="#5c5c66" text-anchor="middle" dominant-baseline="central" style="letter-spacing:0.3em;">OPEN</text>
<circle cx="666.5" cy="347" r="257" fill="#d3d2ce" stroke="#9a9995" stroke-width="3"/><circle cx="666.5" cy="347" r="243" fill="none" stroke="#b5b4b0" stroke-width="2"/>
<text x="666.5" y="570" font-family="Titillium Web, DejaVu Sans, sans-serif" font-size="13" font-weight="600" fill="#5c5c66" text-anchor="middle" dominant-baseline="central" style="letter-spacing:0.3em;">OPEN</text>
<text x="26" y="30" font-family="Titillium Web, DejaVu Sans, sans-serif" font-size="38" font-weight="700" fill="#2b2b33" text-anchor="start" dominant-baseline="central" style="letter-spacing:0.04em;font-style:italic;">PSX Verb</text>
<text x="226" y="30" font-family="Titillium Web, DejaVu Sans, sans-serif" font-size="17" font-weight="600" fill="#2b2b33" text-anchor="start" dominant-baseline="central" style="letter-spacing:0.18em;font-style:italic;">SPU REVERB</text>
<g transform="translate(1150 30)" fill="none" stroke-width="3"><path d="M-48,8 L-38,-9 L-28,8 Z" stroke="#2fa87a"/><circle cx="-6" cy="0" r="9" stroke="#d6383a"/><path d="M14,-8 L30,8 M30,-8 L14,8" stroke="#4a78c8"/><rect x="40" y="-8" width="16" height="16" stroke="#d47ab0"/></g>
<circle cx="10" cy="10" r="4.5" fill="url(#screw)" stroke="#333" stroke-width="1"/><line x1="7.3" y1="7.3" x2="12.7" y2="12.7" stroke="#444" stroke-width="1.6"/>
<circle cx="1270" cy="10" r="4.5" fill="url(#screw)" stroke="#333" stroke-width="1"/><line x1="1267.3" y1="7.3" x2="1272.7" y2="12.7" stroke="#444" stroke-width="1.6"/>
</svg>