<svg xmlns="http://www.w3.org/2000/svg" width="1280" height="628" viewBox="0 0 1280 628">
<defs>
<filter id="brush" x="0" y="0" width="100%" height="100%"><feTurbulence type="fractalNoise" baseFrequency="0.002 0.9"
 numOctaves="2" seed="4"/><feColorMatrix values="0 0 0 0 1  0 0 0 0 1  0 0 0 0 1  0 0 0 0.16 0"/></filter>
<filter id="grain" x="0" y="0" width="100%" height="100%"><feTurbulence type="fractalNoise" baseFrequency="0.9"
 numOctaves="2" seed="7"/><feColorMatrix values="0 0 0 0 0  0 0 0 0 0  0 0 0 0 0  0 0 0 0.10 0"/></filter>
<filter id="woodf" x="0" y="0" width="100%" height="100%"><feTurbulence type="fractalNoise" baseFrequency="0.012 0.25"
 numOctaves="3" seed="11"/><feColorMatrix values="0 0 0 0 0.36  0 0 0 0 0.20  0 0 0 0 0.09  0 0 0 0.9 0"/></filter>
<linearGradient id="screw" x1="0" y1="0" x2="1" y2="1"><stop offset="0" stop-color="#eee"/><stop offset="1" stop-color="#777"/></linearGradient>
<linearGradient id="shade" x1="0" y1="0" x2="0" y2="1"><stop offset="0" stop-color="#fff" stop-opacity="0.07"/>
 <stop offset="1" stop-color="#000" stop-opacity="0.12"/></linearGradient>
</defs>
<rect width="1280" height="628" fill="#1c2620"/>
<rect width="1280" height="628" filter="url(#grain)"/>
<rect width="1280" height="628" fill="url(#shade)"/>
<rect x="12" y="58" width="206" height="562" rx="6" fill="#25312a" stroke="#8e9a92" stroke-width="1.5"/>
<rect x="228" y="58" width="223" height="562" rx="6" fill="#25312a" stroke="#8e9a92" stroke-width="1.5"/>
<rect x="462" y="58" width="223" height="562" rx="6" fill="#25312a" stroke="#8e9a92" stroke-width="1.5"/>
<rect x="695" y="58" width="223" height="562" rx="6" fill="#25312a" stroke="#8e9a92" stroke-width="1.5"/>
<rect x="929" y="58" width="164" height="562" rx="6" fill="#25312a" stroke="#8e9a92" stroke-width="1.5"/>
<rect x="1103" y="58" width="164" height="562" rx="6" fill="#25312a" stroke="#8e9a92" stroke-width="1.5"/>
<rect x="0" y="0" width="1280" height="54" fill="#b8bcba"/>
<text x="26" y="30" font-family="Titillium Web, DejaVu Sans, sans-serif" font-size="38" font-weight="700" fill="#1c2620" text-anchor="start" dominant-baseline="central" style="letter-spacing:0.04em;">TAPE DELAY</text>
<rect x="270" y="24" width="290" height="6" fill="#d8b04a"/>
<text x="580" y="30" font-family="Titillium Web, DejaVu Sans, sans-serif" font-size="17" font-weight="600" fill="#1c2620" text-anchor="start" dominant-baseline="central" style="letter-spacing:0.18em;">SPACE ECHO</text>
<text x="1250" y="30" font-family="Titillium Web, DejaVu Sans, sans-serif" font-size="13" font-weight="600" fill="#1c2620" text-anchor="end" dominant-baseline="central" style="letter-spacing:0.2em;" opacity="0.75">MULTI HEAD TAPE ECHO</text>
<circle cx="10" cy="10" r="4.5" fill="url(#screw)" stroke="#333" stroke-width="1"/><line x1="7.3" y1="7.3" x2="12.7" y2="12.7" stroke="#444" stroke-width="1.6"/>
<circle cx="1270" cy="10" r="4.5" fill="url(#screw)" stroke="#333" stroke-width="1"/><line x1="1267.3" y1="7.3" x2="1272.7" y2="12.7" stroke="#444" stroke-width="1.6"/>
</svg>