<svg xmlns="http://www.w3.org/2000/svg" width="1280" height="628" viewBox="0 0 1280 628"><defs>
<linearGradient id="hw-screw" x1="0" y1="0" x2="1" y2="1"><stop offset="0" stop-color="#f2f2f2"/><stop offset="1" stop-color="#7a7a7a"/></linearGradient>
<filter id="hw-brush" x="0" y="0" width="100%" height="100%"><feTurbulence type="fractalNoise" baseFrequency="0.0025 0.8" numOctaves="2" seed="5"/>
 <feColorMatrix values="0 0 0 0 1  0 0 0 0 1  0 0 0 0 1  0 0 0 0.20 0"/></filter>
<filter id="hw-brushd" x="0" y="0" width="100%" height="100%"><feTurbulence type="fractalNoise" baseFrequency="0.0025 0.8" numOctaves="2" seed="9"/>
 <feColorMatrix values="0 0 0 0 0  0 0 0 0 0  0 0 0 0 0  0 0 0 0.16 0"/></filter>
<filter id="hw-grain" x="0" y="0" width="100%" height="100%"><feTurbulence type="fractalNoise" baseFrequency="0.85" numOctaves="2" seed="3"/>
 <feColorMatrix values="0 0 0 0 0  0 0 0 0 0  0 0 0 0 0  0 0 0 0.07 0"/></filter>
<filter id="hw-wood" x="0" y="0" width="100%" height="100%"><feTurbulence type="fractalNoise" baseFrequency="0.006 0.18" numOctaves="4" seed="21"/>
 <feColorMatrix values="0 0 0 0 0.30  0 0 0 0 0.15  0 0 0 0 0.05  0 0 0 0.85 0"/></filter>
<filter id="hw-soft" x="-20%" y="-20%" width="140%" height="140%"><feGaussianBlur stdDeviation="2"/></filter>
<filter id="hw-shadow" x="-30%" y="-30%" width="160%" height="160%"><feDropShadow dx="0" dy="2" stdDeviation="2" flood-opacity="0.45"/></filter>
<linearGradient id="hw-vshade" x1="0" y1="0" x2="0" y2="1"><stop offset="0" stop-color="#fff" stop-opacity="0.10"/><stop offset="1" stop-color="#000" stop-opacity="0.14"/></linearGradient>
</defs>
<rect x="0" y="0" width="1280" height="628" rx="0" fill="#4a2a16"/><rect x="0" y="0" width="1280" height="628" filter="url(#hw-wood)"/>
<rect x="26" y="18" width="1228" height="592" rx="10" fill="#000" opacity="0.35"/>
<rect x="22" y="14" width="1236" height="592" rx="10" fill="#efe6d2"/>
<rect x="22" y="14" width="1236" height="592" filter="url(#hw-grain)"/>
<rect x="22" y="14" width="1236" height="592" rx="10" fill="url(#hw-vshade)"/>
<circle cx="42" cy="34" r="6" fill="url(#hw-screw)" stroke="#555" stroke-width="0.8"/><line x1="39.0302" y1="31.0302" x2="44.9698" y2="36.9698" stroke="#555" stroke-width="1.68" stroke-linecap="round"/>
<circle cx="1238" cy="34" r="6" fill="url(#hw-screw)" stroke="#555" stroke-width="0.8"/><line x1="1235.03" y1="31.0302" x2="1240.97" y2="36.9698" stroke="#555" stroke-width="1.68" stroke-linecap="round"/>
<circle cx="42" cy="586" r="6" fill="url(#hw-screw)" stroke="#555" stroke-width="0.8"/><line x1="39.0302" y1="583.03" x2="44.9698" y2="588.97" stroke="#555" stroke-width="1.68" stroke-linecap="round"/>
<circle cx="1238" cy="586" r="6" fill="url(#hw-screw)" stroke="#555" stroke-width="0.8"/><line x1="1235.03" y1="583.03" x2="1240.97" y2="588.97" stroke="#555" stroke-width="1.68" stroke-linecap="round"/>
<defs><linearGradient id="bs-toast" x1="0" y1="0" x2="0" y2="1"><stop offset="0" stop-color="#b8662a"/><stop offset="1" stop-color="#7a3a14"/></linearGradient></defs>
<rect x="22" y="58" width="1236" height="66" rx="0" fill="url(#bs-toast)"/>
<rect x="22" y="58" width="1236" height="2" rx="0" fill="#5a2a0e"/>
<rect x="22" y="122" width="1236" height="2" rx="0" fill="#5a2a0e"/>
<text x="60" y="92" font-size="40" fill="#fbefd8" text-anchor="start" dominant-baseline="central" style="font-family:FreeSans, Liberation Sans, Titillium Web, sans-serif;font-weight:700;letter-spacing:0.06em;" transform="translate(60 0) scale(1.05 1) translate(-60 0)">BREAKSLICER</text>
<text x="468" y="98" font-size="12" fill="#f6d9b4" text-anchor="start" dominant-baseline="central" style="font-family:FreeSans, Liberation Sans, Titillium Web, sans-serif;font-weight:700;letter-spacing:0.3em;">TEMPO-SYNCED BREAK CHOPPER</text>
<path d="M930 112 v-22 q0 -30 40 -30 h210 q40 0 40 30 v22 z" fill="#f3d7a8" stroke="#fbefd8" stroke-width="2.5"/>
<path d="M936 86 q10 -22 40 -24 h198 q30 2 40 24" fill="none" stroke="#c98a4a" stroke-width="2"/>
<line x1="966.25" y1="62" x2="966.25" y2="112" stroke="#7a3a14" stroke-width="2.2"/>
<line x1="1002.5" y1="62" x2="1002.5" y2="112" stroke="#7a3a14" stroke-width="2.2"/>
<rect x="1041.75" y="72" width="30.25" height="38" rx="0" fill="#e0582a" opacity="0.55"/>
<line x1="1038.75" y1="62" x2="1038.75" y2="112" stroke="#7a3a14" stroke-width="2.2"/>
<line x1="1075" y1="62" x2="1075" y2="112" stroke="#7a3a14" stroke-width="2.2"/>
<line x1="1111.25" y1="62" x2="1111.25" y2="112" stroke="#7a3a14" stroke-width="2.2"/>
<rect x="1150.5" y="72" width="30.25" height="38" rx="0" fill="#e0582a" opacity="0.55"/>
<line x1="1147.5" y1="62" x2="1147.5" y2="112" stroke="#7a3a14" stroke-width="2.2"/>
<line x1="1183.75" y1="62" x2="1183.75" y2="112" stroke="#7a3a14" stroke-width="2.2"/>
<rect x="48" y="150" width="270" height="430" rx="8" fill="none" stroke="#b9a582" stroke-width="2"/>
<rect x="148" y="140" width="70" height="22" rx="0" fill="#efe6d2"/>
<text x="183" y="151" font-size="15" fill="#e0582a" text-anchor="middle" dominant-baseline="central" style="font-family:FreeSans, Liberation Sans, Titillium Web, sans-serif;font-weight:700;letter-spacing:0.3em;">CUT</text>
<rect x="338" y="150" width="240" height="430" rx="8" fill="none" stroke="#b9a582" stroke-width="2"/>
<rect x="409" y="140" width="98" height="22" rx="0" fill="#efe6d2"/>
<text x="458" y="151" font-size="15" fill="#e0582a" text-anchor="middle" dominant-baseline="central" style="font-family:FreeSans, Liberation Sans, Titillium Web, sans-serif;font-weight:700;letter-spacing:0.3em;">SHAPE</text>
<rect x="598" y="150" width="634" height="430" rx="8" fill="none" stroke="#b9a582" stroke-width="2"/>
<rect x="838" y="140" width="154" height="22" rx="0" fill="#efe6d2"/>
<text x="915" y="151" font-size="15" fill="#e0582a" text-anchor="middle" dominant-baseline="central" style="font-family:FreeSans, Liberation Sans, Titillium Web, sans-serif;font-weight:700;letter-spacing:0.3em;">RANDOMISE</text>
<text x="183" y="386" font-size="14" fill="#2a1c12" text-anchor="middle" dominant-baseline="central" style="font-family:FreeSans, Liberation Sans, Titillium Web, sans-serif;font-weight:700;letter-spacing:0.2em;">SIZE</text>
<g stroke="#2a1c12" stroke-width="2.2" stroke-linecap="round"><line x1="137.0" y1="470.0" x2="129.0" y2="470.0"/><line x1="160.0" y1="430.2" x2="156.0" y2="423.2"/><line x1="206.0" y1="430.2" x2="210.0" y2="423.2"/><line x1="229.0" y1="470.0" x2="237.0" y2="470.0"/></g>
<text x="115" y="470" font-size="12" fill="#2a1c12" text-anchor="middle" dominant-baseline="central" style="font-family:FreeSans, Liberation Sans, Titillium Web, sans-serif;font-weight:700;letter-spacing:0em;">1/4</text><text x="149" y="411.11" font-size="12" fill="#2a1c12" text-anchor="middle" dominant-baseline="central" style="font-family:FreeSans, Liberation Sans, Titillium Web, sans-serif;font-weight:700;letter-spacing:0em;">1/8</text><text x="217" y="411.11" font-size="12" fill="#2a1c12" text-anchor="middle" dominant-baseline="central" style="font-family:FreeSans, Liberation Sans, Titillium Web, sans-serif;font-weight:700;letter-spacing:0em;">1/16</text><text x="251" y="470" font-size="12" fill="#2a1c12" text-anchor="middle" dominant-baseline="central" style="font-family:FreeSans, Liberation Sans, Titillium Web, sans-serif;font-weight:700;letter-spacing:0em;">1/32</text>
<text x="183" y="528" font-size="9" fill="#6a5644" text-anchor="middle" dominant-baseline="central" style="font-family:FreeSans, Liberation Sans, Titillium Web, sans-serif;font-weight:700;letter-spacing:0.2em;">OF A BAR</text>
<g stroke="#2a1c12" stroke-width="2" stroke-linecap="round"><line x1="422.6" y1="305.4" x2="417.0" y2="311.0"/><line x1="410.4" y1="285.5" x2="402.8" y2="287.9"/><line x1="408.6" y1="262.2" x2="400.7" y2="260.9"/><line x1="417.5" y1="240.6" x2="411.1" y2="235.9"/><line x1="435.3" y1="225.4" x2="431.7" y2="218.3"/><line x1="458.0" y1="220.0" x2="458.0" y2="212.0"/><line x1="480.7" y1="225.4" x2="484.3" y2="218.3"/><line x1="498.5" y1="240.6" x2="504.9" y2="235.9"/><line x1="507.4" y1="262.2" x2="515.3" y2="260.9"/><line x1="505.6" y1="285.5" x2="513.2" y2="287.9"/><line x1="493.4" y1="305.4" x2="499.0" y2="311.0"/></g>
<text x="400" y="312" font-size="8.5" fill="#6a5644" text-anchor="end" dominant-baseline="central" style="font-family:FreeSans, Liberation Sans, Titillium Web, sans-serif;font-weight:700;letter-spacing:0em;">STUTTER</text>
<text x="516" y="312" font-size="8.5" fill="#6a5644" text-anchor="start" dominant-baseline="central" style="font-family:FreeSans, Liberation Sans, Titillium Web, sans-serif;font-weight:700;letter-spacing:0em;">FULL</text>
<g stroke="#2a1c12" stroke-width="2" stroke-linecap="round"><line x1="422.6" y1="505.4" x2="417.0" y2="511.0"/><line x1="410.4" y1="485.5" x2="402.8" y2="487.9"/><line x1="408.6" y1="462.2" x2="400.7" y2="460.9"/><line x1="417.5" y1="440.6" x2="411.1" y2="435.9"/><line x1="435.3" y1="425.4" x2="431.7" y2="418.3"/><line x1="458.0" y1="420.0" x2="458.0" y2="412.0"/><line x1="480.7" y1="425.4" x2="484.3" y2="418.3"/><line x1="498.5" y1="440.6" x2="504.9" y2="435.9"/><line x1="507.4" y1="462.2" x2="515.3" y2="460.9"/><line x1="505.6" y1="485.5" x2="513.2" y2="487.9"/><line x1="493.4" y1="505.4" x2="499.0" y2="511.0"/></g>
<text x="400" y="512" font-size="8.5" fill="#6a5644" text-anchor="end" dominant-baseline="central" style="font-family:FreeSans, Liberation Sans, Titillium Web, sans-serif;font-weight:700;letter-spacing:0em;">DRY</text>
<text x="516" y="512" font-size="8.5" fill="#6a5644" text-anchor="start" dominant-baseline="central" style="font-family:FreeSans, Liberation Sans, Titillium Web, sans-serif;font-weight:700;letter-spacing:0em;">WET</text>
<g stroke="#2a1c12" stroke-width="2" stroke-linecap="round"><line x1="690.6" y1="305.4" x2="685.0" y2="311.0"/><line x1="678.4" y1="285.5" x2="670.8" y2="287.9"/><line x1="676.6" y1="262.2" x2="668.7" y2="260.9"/><line x1="685.5" y1="240.6" x2="679.1" y2="235.9"/><line x1="703.3" y1="225.4" x2="699.7" y2="218.3"/><line x1="726.0" y1="220.0" x2="726.0" y2="212.0"/><line x1="748.7" y1="225.4" x2="752.3" y2="218.3"/><line x1="766.5" y1="240.6" x2="772.9" y2="235.9"/><line x1="775.4" y1="262.2" x2="783.3" y2="260.9"/><line x1="773.6" y1="285.5" x2="781.2" y2="287.9"/><line x1="761.4" y1="305.4" x2="767.0" y2="311.0"/></g>
<text x="668" y="312" font-size="8" fill="#6a5644" text-anchor="end" dominant-baseline="central" style="font-family:FreeSans, Liberation Sans, Titillium Web, sans-serif;font-weight:700;letter-spacing:0em;">NEVER</text>
<text x="784" y="312" font-size="8" fill="#6a5644" text-anchor="start" dominant-baseline="central" style="font-family:FreeSans, Liberation Sans, Titillium Web, sans-serif;font-weight:700;letter-spacing:0em;">ALWAYS</text>
<g stroke="#2a1c12" stroke-width="2" stroke-linecap="round"><line x1="880.6" y1="305.4" x2="875.0" y2="311.0"/><line x1="868.4" y1="285.5" x2="860.8" y2="287.9"/><line x1="866.6" y1="262.2" x2="858.7" y2="260.9"/><line x1="875.5" y1="240.6" x2="869.1" y2="235.9"/><line x1="893.3" y1="225.4" x2="889.7" y2="218.3"/><line x1="916.0" y1="220.0" x2="916.0" y2="212.0"/><line x1="938.7" y1="225.4" x2="942.3" y2="218.3"/><line x1="956.5" y1="240.6" x2="962.9" y2="235.9"/><line x1="965.4" y1="262.2" x2="973.3" y2="260.9"/><line x1="963.6" y1="285.5" x2="971.2" y2="287.9"/><line x1="951.4" y1="305.4" x2="957.0" y2="311.0"/></g>
<text x="858" y="312" font-size="8" fill="#6a5644" text-anchor="end" dominant-baseline="central" style="font-family:FreeSans, Liberation Sans, Titillium Web, sans-serif;font-weight:700;letter-spacing:0em;">NEVER</text>
<text x="974" y="312" font-size="8" fill="#6a5644" text-anchor="start" dominant-baseline="central" style="font-family:FreeSans, Liberation Sans, Titillium Web, sans-serif;font-weight:700;letter-spacing:0em;">ALWAYS</text>
<g stroke="#2a1c12" stroke-width="2" stroke-linecap="round"><line x1="1070.6" y1="305.4" x2="1065.0" y2="311.0"/><line x1="1058.4" y1="285.5" x2="1050.8" y2="287.9"/><line x1="1056.6" y1="262.2" x2="1048.7" y2="260.9"/><line x1="1065.5" y1="240.6" x2="1059.1" y2="235.9"/><line x1="1083.3" y1="225.4" x2="1079.7" y2="218.3"/><line x1="1106.0" y1="220.0" x2="1106.0" y2="212.0"/><line x1="1128.7" y1="225.4" x2="1132.3" y2="218.3"/><line x1="1146.5" y1="240.6" x2="1152.9" y2="235.9"/><line x1="1155.4" y1="262.2" x2="1163.3" y2="260.9"/><line x1="1153.6" y1="285.5" x2="1161.2" y2="287.9"/><line x1="1141.4" y1="305.4" x2="1147.0" y2="311.0"/></g>
<text x="1048" y="312" font-size="8" fill="#6a5644" text-anchor="end" dominant-baseline="central" style="font-family:FreeSans, Liberation Sans, Titillium Web, sans-serif;font-weight:700;letter-spacing:0em;">NEVER</text>
<text x="1164" y="312" font-size="8" fill="#6a5644" text-anchor="start" dominant-baseline="central" style="font-family:FreeSans, Liberation Sans, Titillium Web, sans-serif;font-weight:700;letter-spacing:0em;">ALWAYS</text>
<g stroke="#2a1c12" stroke-width="2" stroke-linecap="round"><line x1="690.6" y1="505.4" x2="685.0" y2="511.0"/><line x1="678.4" y1="485.5" x2="670.8" y2="487.9"/><line x1="676.6" y1="462.2" x2="668.7" y2="460.9"/><line x1="685.5" y1="440.6" x2="679.1" y2="435.9"/><line x1="703.3" y1="425.4" x2="699.7" y2="418.3"/><line x1="726.0" y1="420.0" x2="726.0" y2="412.0"/><line x1="748.7" y1="425.4" x2="752.3" y2="418.3"/><line x1="766.5" y1="440.6" x2="772.9" y2="435.9"/><line x1="775.4" y1="462.2" x2="783.3" y2="460.9"/><line x1="773.6" y1="485.5" x2="781.2" y2="487.9"/><line x1="761.4" y1="505.4" x2="767.0" y2="511.0"/></g>
<text x="668" y="512" font-size="8" fill="#6a5644" text-anchor="end" dominant-baseline="central" style="font-family:FreeSans, Liberation Sans, Titillium Web, sans-serif;font-weight:700;letter-spacing:0em;">NEVER</text>
<text x="784" y="512" font-size="8" fill="#6a5644" text-anchor="start" dominant-baseline="central" style="font-family:FreeSans, Liberation Sans, Titillium Web, sans-serif;font-weight:700;letter-spacing:0em;">ALWAYS</text>
<g stroke="#2a1c12" stroke-width="2" stroke-linecap="round"><line x1="880.6" y1="505.4" x2="875.0" y2="511.0"/><line x1="868.4" y1="485.5" x2="860.8" y2="487.9"/><line x1="866.6" y1="462.2" x2="858.7" y2="460.9"/><line x1="875.5" y1="440.6" x2="869.1" y2="435.9"/><line x1="893.3" y1="425.4" x2="889.7" y2="418.3"/><line x1="916.0" y1="420.0" x2="916.0" y2="412.0"/><line x1="938.7" y1="425.4" x2="942.3" y2="418.3"/><line x1="956.5" y1="440.6" x2="962.9" y2="435.9"/><line x1="965.4" y1="462.2" x2="973.3" y2="460.9"/><line x1="963.6" y1="485.5" x2="971.2" y2="487.9"/><line x1="951.4" y1="505.4" x2="957.0" y2="511.0"/></g>
<text x="858" y="512" font-size="8" fill="#6a5644" text-anchor="end" dominant-baseline="central" style="font-family:FreeSans, Liberation Sans, Titillium Web, sans-serif;font-weight:700;letter-spacing:0em;">NEVER</text>
<text x="974" y="512" font-size="8" fill="#6a5644" text-anchor="start" dominant-baseline="central" style="font-family:FreeSans, Liberation Sans, Titillium Web, sans-serif;font-weight:700;letter-spacing:0em;">ALWAYS</text>
<g stroke="#2a1c12" stroke-width="2" stroke-linecap="round"><line x1="1070.6" y1="505.4" x2="1065.0" y2="511.0"/><line x1="1058.4" y1="485.5" x2="1050.8" y2="487.9"/><line x1="1056.6" y1="462.2" x2="1048.7" y2="460.9"/><line x1="1065.5" y1="440.6" x2="1059.1" y2="435.9"/><line x1="1083.3" y1="425.4" x2="1079.7" y2="418.3"/><line x1="1106.0" y1="420.0" x2="1106.0" y2="412.0"/><line x1="1128.7" y1="425.4" x2="1132.3" y2="418.3"/><line x1="1146.5" y1="440.6" x2="1152.9" y2="435.9"/><line x1="1155.4" y1="462.2" x2="1163.3" y2="460.9"/><line x1="1153.6" y1="485.5" x2="1161.2" y2="487.9"/><line x1="1141.4" y1="505.4" x2="1147.0" y2="511.0"/></g>
<text x="1048" y="512" font-size="8" fill="#6a5644" text-anchor="end" dominant-baseline="central" style="font-family:FreeSans, Liberation Sans, Titillium Web, sans-serif;font-weight:700;letter-spacing:0em;">NEVER</text>
<text x="1164" y="512" font-size="8" fill="#6a5644" text-anchor="start" dominant-baseline="central" style="font-family:FreeSans, Liberation Sans, Titillium Web, sans-serif;font-weight:700;letter-spacing:0em;">ALWAYS</text>
<text x="915" y="566" font-size="10" fill="#6a5644" text-anchor="middle" dominant-baseline="central" style="font-family:FreeSans, Liberation Sans, Titillium Web, sans-serif;font-weight:700;letter-spacing:0.3em;">CHANCE PER SLICE</text>
<text x="458" y="196" font-size="14" fill="#2a1c12" text-anchor="middle" dominant-baseline="central" style="font-family:FreeSans, Liberation Sans, Titillium Web, sans-serif;font-weight:700;letter-spacing:0.12em;">GATE</text>
<text x="458" y="396" font-size="14" fill="#2a1c12" text-anchor="middle" dominant-baseline="central" style="font-family:FreeSans, Liberation Sans, Titillium Web, sans-serif;font-weight:700;letter-spacing:0.12em;">MIX</text>
<text x="726" y="196" font-size="14" fill="#2a1c12" text-anchor="middle" dominant-baseline="central" style="font-family:FreeSans, Liberation Sans, Titillium Web, sans-serif;font-weight:700;letter-spacing:0.12em;">SHUFFLE</text>
<text x="916" y="196" font-size="14" fill="#2a1c12" text-anchor="middle" dominant-baseline="central" style="font-family:FreeSans, Liberation Sans, Titillium Web, sans-serif;font-weight:700;letter-spacing:0.12em;">REVERSE</text>
<text x="1106" y="196" font-size="14" fill="#2a1c12" text-anchor="middle" dominant-baseline="central" style="font-family:FreeSans, Liberation Sans, Titillium Web, sans-serif;font-weight:700;letter-spacing:0.12em;">ROLL</text>
<text x="726" y="396" font-size="14" fill="#2a1c12" text-anchor="middle" dominant-baseline="central" style="font-family:FreeSans, Liberation Sans, Titillium Web, sans-serif;font-weight:700;letter-spacing:0.12em;">PITCH</text>
<text x="916" y="396" font-size="14" fill="#2a1c12" text-anchor="middle" dominant-baseline="central" style="font-family:FreeSans, Liberation Sans, Titillium Web, sans-serif;font-weight:700;letter-spacing:0.12em;">PAN</text>
<text x="1106" y="396" font-size="14" fill="#2a1c12" text-anchor="middle" dominant-baseline="central" style="font-family:FreeSans, Liberation Sans, Titillium Web, sans-serif;font-weight:700;letter-spacing:0.12em;">FX</text>
</svg>