<svg xmlns="http://www.w3.org/2000/svg" width="1280" height="628" viewBox="0 0 1280 628"><defs>
<linearGradient id="hw-screw" x1="0" y1="0" x2="1" y2="1"><stop offset="0" stop-color="#f2f2f2"/><stop offset="1" stop-color="#7a7a7a"/></linearGradient>
<filter id="hw-brush" x="0" y="0" width="100%" height="100%"><feTurbulence type="fractalNoise" baseFrequency="0.0025 0.8" numOctaves="2" seed="5"/>
 <feColorMatrix values="0 0 0 0 1  0 0 0 0 1  0 0 0 0 1  0 0 0 0.20 0"/></filter>
<filter id="hw-brushd" x="0" y="0" width="100%" height="100%"><feTurbulence type="fractalNoise" baseFrequency="0.0025 0.8" numOctaves="2" seed="9"/>
 <feColorMatrix values="0 0 0 0 0  0 0 0 0 0  0 0 0 0 0  0 0 0 0.16 0"/></filter>
<filter id="hw-grain" x="0" y="0" width="100%" height="100%"><feTurbulence type="fractalNoise" baseFrequency="0.85" numOctaves="2" seed="3"/>
 <feColorMatrix values="0 0 0 0 0  0 0 0 0 0  0 0 0 0 0  0 0 0 0.07 0"/></filter>
<filter id="hw-wood" x="0" y="0" width="100%" height="100%"><feTurbulence type="fractalNoise" baseFrequency="0.006 0.18" numOctaves="4" seed="21"/>
 <feColorMatrix values="0 0 0 0 0.30  0 0 0 0 0.15  0 0 0 0 0.05  0 0 0 0.85 0"/></filter>
<filter id="hw-soft" x="-20%" y="-20%" width="140%" height="140%"><feGaussianBlur stdDeviation="2"/></filter>
<filter id="hw-shadow" x="-30%" y="-30%" width="160%" height="160%"><feDropShadow dx="0" dy="2" stdDeviation="2" flood-opacity="0.45"/></filter>
<linearGradient id="hw-vshade" x1="0" y1="0" x2="0" y2="1"><stop offset="0" stop-color="#fff" stop-opacity="0.10"/><stop offset="1" stop-color="#000" stop-opacity="0.14"/></linearGradient>
</defs>
<rect x="0" y="0" width="1280" height="628" rx="0" fill="#7d8082"/>
<rect x="6" y="4" width="1268" height="620" rx="0" fill="#c4c6c7"/><rect x="6" y="4" width="1268" height="620" filter="url(#hw-brush)"/>
<rect x="6" y="4" width="1268" height="620" rx="10" fill="url(#hw-vshade)"/>
<rect x="6.5" y="4.5" width="1267" height="619" rx="10" fill="none" stroke="#6f7274" stroke-width="1.5"/>
<line x1="12" y1="124" x2="1268" y2="124" stroke="#76797b" stroke-width="2"/>
<line x1="12" y1="126.5" x2="1268" y2="126.5" stroke="#eef0f0" stroke-width="1.5"/>
<path d="M42 14 L38 21.2 L46 21.2 Z" fill="#111"/>
<text x="42" y="32" font-size="10" fill="#1a1a1a" text-anchor="middle" dominant-baseline="central" style="font-family:FreeSans, Liberation Sans, Titillium Web, sans-serif;font-weight:700;letter-spacing:0em;">RUN/STOP</text>
<path d="M118 14 L114 21.2 L122 21.2 Z" fill="#111"/>
<text x="118" y="32" font-size="10" fill="#1a1a1a" text-anchor="middle" dominant-baseline="central" style="font-family:FreeSans, Liberation Sans, Titillium Web, sans-serif;font-weight:700;letter-spacing:0em;">INPUT</text>
<path d="M176 14 L172 21.2 L180 21.2 Z" fill="#111"/>
<text x="176" y="32" font-size="10" fill="#1a1a1a" text-anchor="middle" dominant-baseline="central" style="font-family:FreeSans, Liberation Sans, Titillium Web, sans-serif;font-weight:700;letter-spacing:0em;">SYNC</text>
<line x1="206" y1="16" x2="206" y2="116" stroke="#2a2a2a" stroke-width="1.5"/>
<line x1="1052" y1="16" x2="1052" y2="116" stroke="#2a2a2a" stroke-width="1.5"/>
<path d="M1082 14 L1078 21.2 L1086 21.2 Z" fill="#111"/>
<text x="1082" y="32" font-size="10" fill="#1a1a1a" text-anchor="middle" dominant-baseline="central" style="font-family:FreeSans, Liberation Sans, Titillium Web, sans-serif;font-weight:700;letter-spacing:0em;">TRIGGER OUT</text>
<path d="M1160 14 L1156 21.2 L1164 21.2 Z" fill="#111"/>
<text x="1160" y="32" font-size="10" fill="#1a1a1a" text-anchor="middle" dominant-baseline="central" style="font-family:FreeSans, Liberation Sans, Titillium Web, sans-serif;font-weight:700;letter-spacing:0em;">HEADPHONE</text>
<path d="M1230 14 L1226 21.2 L1234 21.2 Z" fill="#111"/>
<text x="1230" y="32" font-size="10" fill="#1a1a1a" text-anchor="middle" dominant-baseline="central" style="font-family:FreeSans, Liberation Sans, Titillium Web, sans-serif;font-weight:700;letter-spacing:0em;">OUTPUT</text>
<text x="1156" y="84" font-size="52" fill="#2a2b2c" text-anchor="middle" dominant-baseline="central" style="font-family:Titillium Web, FreeSans, sans-serif;font-weight:700;letter-spacing:0.03em;">6W6</text>
<text x="106" y="70" font-size="13" fill="#2a2b2c" text-anchor="middle" dominant-baseline="central" style="font-family:FreeSans, Liberation Sans, Titillium Web, sans-serif;font-weight:700;letter-spacing:0.06em;">VOICE SHAPING</text>
<rect x="14" y="316" width="1252" height="300" rx="4" fill="#232323"/>
<rect x="14" y="316" width="1252" height="300" rx="4" fill="url(#hw-vshade)"/>
<rect x="24" y="326" width="150" height="120" rx="0" fill="none" stroke="#d8d8d8" stroke-width="1.2"/>
<text x="99" y="342" font-size="10" fill="#e8e8e8" text-anchor="middle" dominant-baseline="central" style="font-family:FreeSans, Liberation Sans, Titillium Web, sans-serif;font-weight:700;letter-spacing:0em;">D.C.  BAR RESET</text>
<text x="99" y="364" font-size="10" fill="#e8e8e8" text-anchor="middle" dominant-baseline="central" style="font-family:FreeSans, Liberation Sans, Titillium Web, sans-serif;font-weight:700;letter-spacing:0em;">PATTERN CLEAR</text>
<rect x="74" y="384" width="50" height="26" rx="2" fill="url(#hw-screw)"/>
<rect x="24" y="452" width="150" height="154" rx="0" fill="none" stroke="#d8d8d8" stroke-width="1.2"/>
<text x="99" y="470" font-size="9" fill="#e8e8e8" text-anchor="middle" dominant-baseline="central" style="font-family:FreeSans, Liberation Sans, Titillium Web, sans-serif;font-weight:700;letter-spacing:0em;">RUN  ●  BATTERY</text>
<rect x="59" y="492" width="80" height="46" rx="2" fill="url(#hw-screw)"/>
<text x="99" y="560" font-size="11" fill="#e8e8e8" text-anchor="middle" dominant-baseline="central" style="font-family:FreeSans, Liberation Sans, Titillium Web, sans-serif;font-weight:700;letter-spacing:0em;">RUN/STOP</text>
<rect x="220" y="336" width="1000" height="18" rx="0" fill="none" stroke="#d8d8d8" stroke-width="1"/>
<rect x="220" y="360" width="1000" height="18" rx="0" fill="none" stroke="#d8d8d8" stroke-width="1"/>
<rect x="220" y="384" width="1000" height="18" rx="0" fill="none" stroke="#d8d8d8" stroke-width="1"/>
<rect x="220" y="408" width="1000" height="18" rx="0" fill="none" stroke="#d8d8d8" stroke-width="1"/>
<circle cx="248" cy="446" r="4.5" fill="#4a0f0a" stroke="#1a0503" stroke-width="0.8"/><circle cx="246.65" cy="444.65" r="1.575" fill="#fff" opacity="0.25"/>
<rect x="233" y="466" width="30" height="52" rx="2" fill="url(#hw-screw)" stroke="#111" stroke-width="1"/>
<text x="248" y="534" font-size="12" fill="#e8452a" text-anchor="middle" dominant-baseline="central" style="font-family:FreeSans, Liberation Sans, Titillium Web, sans-serif;font-weight:700;letter-spacing:0em;">1</text>
<rect x="234" y="552" width="28" height="18" rx="1" fill="#e8e8e8"/>
<text x="248" y="561" font-size="10" fill="#111" text-anchor="middle" dominant-baseline="central" style="font-family:FreeSans, Liberation Sans, Titillium Web, sans-serif;font-weight:700;letter-spacing:0em;">1</text>
<circle cx="310.3" cy="446" r="4.5" fill="#4a0f0a" stroke="#1a0503" stroke-width="0.8"/><circle cx="308.95" cy="444.65" r="1.575" fill="#fff" opacity="0.25"/>
<rect x="295.3" y="466" width="30" height="52" rx="2" fill="url(#hw-screw)" stroke="#111" stroke-width="1"/>
<text x="310.3" y="534" font-size="12" fill="#e8452a" text-anchor="middle" dominant-baseline="central" style="font-family:FreeSans, Liberation Sans, Titillium Web, sans-serif;font-weight:700;letter-spacing:0em;">2</text>
<rect x="296.3" y="552" width="28" height="18" rx="1" fill="#e8e8e8"/>
<text x="310.3" y="561" font-size="10" fill="#111" text-anchor="middle" dominant-baseline="central" style="font-family:FreeSans, Liberation Sans, Titillium Web, sans-serif;font-weight:700;letter-spacing:0em;">2</text>
<circle cx="372.6" cy="446" r="4.5" fill="#4a0f0a" stroke="#1a0503" stroke-width="0.8"/><circle cx="371.25" cy="444.65" r="1.575" fill="#fff" opacity="0.25"/>
<rect x="357.6" y="466" width="30" height="52" rx="2" fill="url(#hw-screw)" stroke="#111" stroke-width="1"/>
<text x="372.6" y="534" font-size="12" fill="#e8452a" text-anchor="middle" dominant-baseline="central" style="font-family:FreeSans, Liberation Sans, Titillium Web, sans-serif;font-weight:700;letter-spacing:0em;">3</text>
<rect x="358.6" y="552" width="28" height="18" rx="1" fill="#e8e8e8"/>
<text x="372.6" y="561" font-size="10" fill="#111" text-anchor="middle" dominant-baseline="central" style="font-family:FreeSans, Liberation Sans, Titillium Web, sans-serif;font-weight:700;letter-spacing:0em;">3</text>
<circle cx="434.9" cy="446" r="4.5" fill="#4a0f0a" stroke="#1a0503" stroke-width="0.8"/><circle cx="433.55" cy="444.65" r="1.575" fill="#fff" opacity="0.25"/>
<rect x="419.9" y="466" width="30" height="52" rx="2" fill="url(#hw-screw)" stroke="#111" stroke-width="1"/>
<text x="434.9" y="534" font-size="12" fill="#e8452a" text-anchor="middle" dominant-baseline="central" style="font-family:FreeSans, Liberation Sans, Titillium Web, sans-serif;font-weight:700;letter-spacing:0em;">4</text>
<rect x="420.9" y="552" width="28" height="18" rx="1" fill="#e8e8e8"/>
<text x="434.9" y="561" font-size="10" fill="#111" text-anchor="middle" dominant-baseline="central" style="font-family:FreeSans, Liberation Sans, Titillium Web, sans-serif;font-weight:700;letter-spacing:0em;">4</text>
<circle cx="497.2" cy="446" r="4.5" fill="#4a0f0a" stroke="#1a0503" stroke-width="0.8"/><circle cx="495.85" cy="444.65" r="1.575" fill="#fff" opacity="0.25"/>
<rect x="482.2" y="466" width="30" height="52" rx="2" fill="url(#hw-screw)" stroke="#111" stroke-width="1"/>
<text x="497.2" y="534" font-size="12" fill="#e8452a" text-anchor="middle" dominant-baseline="central" style="font-family:FreeSans, Liberation Sans, Titillium Web, sans-serif;font-weight:700;letter-spacing:0em;">5</text>
<rect x="483.2" y="552" width="28" height="18" rx="1" fill="#e8e8e8"/>
<text x="497.2" y="561" font-size="10" fill="#111" text-anchor="middle" dominant-baseline="central" style="font-family:FreeSans, Liberation Sans, Titillium Web, sans-serif;font-weight:700;letter-spacing:0em;">5</text>
<circle cx="559.5" cy="446" r="4.5" fill="#4a0f0a" stroke="#1a0503" stroke-width="0.8"/><circle cx="558.15" cy="444.65" r="1.575" fill="#fff" opacity="0.25"/>
<rect x="544.5" y="466" width="30" height="52" rx="2" fill="url(#hw-screw)" stroke="#111" stroke-width="1"/>
<text x="559.5" y="534" font-size="12" fill="#e8452a" text-anchor="middle" dominant-baseline="central" style="font-family:FreeSans, Liberation Sans, Titillium Web, sans-serif;font-weight:700;letter-spacing:0em;">6</text>
<rect x="545.5" y="552" width="28" height="18" rx="1" fill="#e8e8e8"/>
<text x="559.5" y="561" font-size="10" fill="#111" text-anchor="middle" dominant-baseline="central" style="font-family:FreeSans, Liberation Sans, Titillium Web, sans-serif;font-weight:700;letter-spacing:0em;">6</text>
<circle cx="621.8" cy="446" r="4.5" fill="#4a0f0a" stroke="#1a0503" stroke-width="0.8"/><circle cx="620.45" cy="444.65" r="1.575" fill="#fff" opacity="0.25"/>
<rect x="606.8" y="466" width="30" height="52" rx="2" fill="url(#hw-screw)" stroke="#111" stroke-width="1"/>
<text x="621.8" y="534" font-size="12" fill="#e8452a" text-anchor="middle" dominant-baseline="central" style="font-family:FreeSans, Liberation Sans, Titillium Web, sans-serif;font-weight:700;letter-spacing:0em;">7</text>
<rect x="607.8" y="552" width="28" height="18" rx="1" fill="#e8e8e8"/>
<text x="621.8" y="561" font-size="10" fill="#111" text-anchor="middle" dominant-baseline="central" style="font-family:FreeSans, Liberation Sans, Titillium Web, sans-serif;font-weight:700;letter-spacing:0em;">7</text>
<circle cx="684.1" cy="446" r="4.5" fill="#4a0f0a" stroke="#1a0503" stroke-width="0.8"/><circle cx="682.75" cy="444.65" r="1.575" fill="#fff" opacity="0.25"/>
<rect x="669.1" y="466" width="30" height="52" rx="2" fill="url(#hw-screw)" stroke="#111" stroke-width="1"/>
<text x="684.1" y="534" font-size="12" fill="#e8452a" text-anchor="middle" dominant-baseline="central" style="font-family:FreeSans, Liberation Sans, Titillium Web, sans-serif;font-weight:700;letter-spacing:0em;">8</text>
<rect x="670.1" y="552" width="28" height="18" rx="1" fill="#e8e8e8"/>
<text x="684.1" y="561" font-size="10" fill="#111" text-anchor="middle" dominant-baseline="central" style="font-family:FreeSans, Liberation Sans, Titillium Web, sans-serif;font-weight:700;letter-spacing:0em;">8</text>
<circle cx="746.4" cy="446" r="4.5" fill="#4a0f0a" stroke="#1a0503" stroke-width="0.8"/><circle cx="745.05" cy="444.65" r="1.575" fill="#fff" opacity="0.25"/>
<rect x="731.4" y="466" width="30" height="52" rx="2" fill="url(#hw-screw)" stroke="#111" stroke-width="1"/>
<text x="746.4" y="534" font-size="12" fill="#e8452a" text-anchor="middle" dominant-baseline="central" style="font-family:FreeSans, Liberation Sans, Titillium Web, sans-serif;font-weight:700;letter-spacing:0em;">9</text>
<rect x="732.4" y="552" width="28" height="18" rx="1" fill="#e8e8e8"/>
<text x="746.4" y="561" font-size="10" fill="#111" text-anchor="middle" dominant-baseline="central" style="font-family:FreeSans, Liberation Sans, Titillium Web, sans-serif;font-weight:700;letter-spacing:0em;">9</text>
<circle cx="808.7" cy="446" r="4.5" fill="#4a0f0a" stroke="#1a0503" stroke-width="0.8"/><circle cx="807.35" cy="444.65" r="1.575" fill="#fff" opacity="0.25"/>
<rect x="793.7" y="466" width="30" height="52" rx="2" fill="url(#hw-screw)" stroke="#111" stroke-width="1"/>
<text x="808.7" y="534" font-size="12" fill="#e8452a" text-anchor="middle" dominant-baseline="central" style="font-family:FreeSans, Liberation Sans, Titillium Web, sans-serif;font-weight:700;letter-spacing:0em;">10</text>
<rect x="794.7" y="552" width="28" height="18" rx="1" fill="#e8e8e8"/>
<text x="808.7" y="561" font-size="10" fill="#111" text-anchor="middle" dominant-baseline="central" style="font-family:FreeSans, Liberation Sans, Titillium Web, sans-serif;font-weight:700;letter-spacing:0em;">0</text>
<circle cx="871" cy="446" r="4.5" fill="#4a0f0a" stroke="#1a0503" stroke-width="0.8"/><circle cx="869.65" cy="444.65" r="1.575" fill="#fff" opacity="0.25"/>
<rect x="856" y="466" width="30" height="52" rx="2" fill="url(#hw-screw)" stroke="#111" stroke-width="1"/>
<text x="871" y="534" font-size="12" fill="#e8452a" text-anchor="middle" dominant-baseline="central" style="font-family:FreeSans, Liberation Sans, Titillium Web, sans-serif;font-weight:700;letter-spacing:0em;">11</text>
<rect x="857" y="552" width="28" height="18" rx="1" fill="#e8e8e8"/>
<text x="871" y="561" font-size="10" fill="#111" text-anchor="middle" dominant-baseline="central" style="font-family:FreeSans, Liberation Sans, Titillium Web, sans-serif;font-weight:700;letter-spacing:0em;">100</text>
<circle cx="933.3" cy="446" r="4.5" fill="#4a0f0a" stroke="#1a0503" stroke-width="0.8"/><circle cx="931.95" cy="444.65" r="1.575" fill="#fff" opacity="0.25"/>
<rect x="918.3" y="466" width="30" height="52" rx="2" fill="url(#hw-screw)" stroke="#111" stroke-width="1"/>
<text x="933.3" y="534" font-size="12" fill="#e8452a" text-anchor="middle" dominant-baseline="central" style="font-family:FreeSans, Liberation Sans, Titillium Web, sans-serif;font-weight:700;letter-spacing:0em;">12</text>
<rect x="919.3" y="552" width="28" height="18" rx="1" fill="#e8e8e8"/>
<text x="933.3" y="561" font-size="10" fill="#111" text-anchor="middle" dominant-baseline="central" style="font-family:FreeSans, Liberation Sans, Titillium Web, sans-serif;font-weight:700;letter-spacing:0em;">200</text>
<circle cx="995.6" cy="446" r="4.5" fill="#4a0f0a" stroke="#1a0503" stroke-width="0.8"/><circle cx="994.25" cy="444.65" r="1.575" fill="#fff" opacity="0.25"/>
<rect x="980.6" y="466" width="30" height="52" rx="2" fill="url(#hw-screw)" stroke="#111" stroke-width="1"/>
<text x="995.6" y="534" font-size="12" fill="#e8452a" text-anchor="middle" dominant-baseline="central" style="font-family:FreeSans, Liberation Sans, Titillium Web, sans-serif;font-weight:700;letter-spacing:0em;">13</text>
<rect x="981.6" y="552" width="28" height="18" rx="1" fill="#e8e8e8"/>
<text x="995.6" y="561" font-size="10" fill="#111" text-anchor="middle" dominant-baseline="central" style="font-family:FreeSans, Liberation Sans, Titillium Web, sans-serif;font-weight:700;letter-spacing:0em;">/</text>
<circle cx="1057.9" cy="446" r="4.5" fill="#4a0f0a" stroke="#1a0503" stroke-width="0.8"/><circle cx="1056.55" cy="444.65" r="1.575" fill="#fff" opacity="0.25"/>
<rect x="1042.9" y="466" width="30" height="52" rx="2" fill="url(#hw-screw)" stroke="#111" stroke-width="1"/>
<text x="1057.9" y="534" font-size="12" fill="#e8452a" text-anchor="middle" dominant-baseline="central" style="font-family:FreeSans, Liberation Sans, Titillium Web, sans-serif;font-weight:700;letter-spacing:0em;">14</text>
<rect x="1043.9" y="552" width="28" height="18" rx="1" fill="#e8e8e8"/>
<text x="1057.9" y="561" font-size="10" fill="#111" text-anchor="middle" dominant-baseline="central" style="font-family:FreeSans, Liberation Sans, Titillium Web, sans-serif;font-weight:700;letter-spacing:0em;">/</text>
<circle cx="1120.2" cy="446" r="4.5" fill="#4a0f0a" stroke="#1a0503" stroke-width="0.8"/><circle cx="1118.85" cy="444.65" r="1.575" fill="#fff" opacity="0.25"/>
<rect x="1105.2" y="466" width="30" height="52" rx="2" fill="url(#hw-screw)" stroke="#111" stroke-width="1"/>
<text x="1120.2" y="534" font-size="12" fill="#e8452a" text-anchor="middle" dominant-baseline="central" style="font-family:FreeSans, Liberation Sans, Titillium Web, sans-serif;font-weight:700;letter-spacing:0em;">15</text>
<rect x="1106.2" y="552" width="28" height="18" rx="1" fill="#e8e8e8"/>
<text x="1120.2" y="561" font-size="10" fill="#111" text-anchor="middle" dominant-baseline="central" style="font-family:FreeSans, Liberation Sans, Titillium Web, sans-serif;font-weight:700;letter-spacing:0em;">DEL</text>
<circle cx="1182.5" cy="446" r="4.5" fill="#4a0f0a" stroke="#1a0503" stroke-width="0.8"/><circle cx="1181.15" cy="444.65" r="1.575" fill="#fff" opacity="0.25"/>
<rect x="1167.5" y="466" width="30" height="52" rx="2" fill="url(#hw-screw)" stroke="#111" stroke-width="1"/>
<text x="1182.5" y="534" font-size="12" fill="#e8452a" text-anchor="middle" dominant-baseline="central" style="font-family:FreeSans, Liberation Sans, Titillium Web, sans-serif;font-weight:700;letter-spacing:0em;">16</text>
<rect x="1168.5" y="552" width="28" height="18" rx="1" fill="#e8e8e8"/>
<text x="1182.5" y="561" font-size="10" fill="#111" text-anchor="middle" dominant-baseline="central" style="font-family:FreeSans, Liberation Sans, Titillium Web, sans-serif;font-weight:700;letter-spacing:0em;">INS</text>
<rect x="1230" y="326" width="28" height="280" rx="0" fill="#2c2c2c"/>
<text x="252" y="78" font-size="13" fill="#1a1a1a" text-anchor="middle" dominant-baseline="central" style="font-family:FreeSans, Liberation Sans, Titillium Web, sans-serif;font-weight:700;letter-spacing:0em;">DECAY</text>
<g stroke="#1a1a1a" stroke-width="1.7" stroke-linecap="round"><line x1="321.8" y1="102.7" x2="317.5" y2="107.0"/><line x1="313.2" y1="88.8" x2="307.5" y2="90.7"/><line x1="311.9" y1="72.5" x2="306.0" y2="71.6"/><line x1="318.2" y1="57.4" x2="313.3" y2="53.9"/><line x1="330.6" y1="46.8" x2="327.9" y2="41.5"/><line x1="346.5" y1="43.0" x2="346.5" y2="37.0"/><line x1="362.4" y1="46.8" x2="365.1" y2="41.5"/><line x1="374.8" y1="57.4" x2="379.7" y2="53.9"/><line x1="381.1" y1="72.5" x2="387.0" y2="71.6"/><line x1="379.8" y1="88.8" x2="385.5" y2="90.7"/><line x1="371.2" y1="102.7" x2="375.5" y2="107.0"/></g>
<path d="M346.5 40.8 L343.3 46.56 L349.7 46.56 Z" fill="#111"/>
<text x="346.5" y="20" fill="#1a1a1a" text-anchor="middle" dominant-baseline="central" style="font-family:FreeSans, Liberation Sans, Titillium Web, sans-serif;font-weight:400;letter-spacing:0.01em;"><tspan font-size="15">B</tspan><tspan font-size="10.5">A</tspan><tspan font-size="10.5">S</tspan><tspan font-size="10.5">S</tspan><tspan font-size="15">D</tspan><tspan font-size="10.5">R</tspan><tspan font-size="10.5">U</tspan><tspan font-size="10.5">M</tspan></text>
<g stroke="#1a1a1a" stroke-width="1.7" stroke-linecap="round"><line x1="416.3" y1="102.7" x2="412.0" y2="107.0"/><line x1="407.7" y1="88.8" x2="402.0" y2="90.7"/><line x1="406.4" y1="72.5" x2="400.5" y2="71.6"/><line x1="412.7" y1="57.4" x2="407.8" y2="53.9"/><line x1="425.1" y1="46.8" x2="422.4" y2="41.5"/><line x1="441.0" y1="43.0" x2="441.0" y2="37.0"/><line x1="456.9" y1="46.8" x2="459.6" y2="41.5"/><line x1="469.3" y1="57.4" x2="474.2" y2="53.9"/><line x1="475.6" y1="72.5" x2="481.5" y2="71.6"/><line x1="474.3" y1="88.8" x2="480.0" y2="90.7"/><line x1="465.7" y1="102.7" x2="470.0" y2="107.0"/></g>
<path d="M441 40.8 L437.8 46.56 L444.2 46.56 Z" fill="#111"/>
<text x="441" y="20" fill="#1a1a1a" text-anchor="middle" dominant-baseline="central" style="font-family:FreeSans, Liberation Sans, Titillium Web, sans-serif;font-weight:400;letter-spacing:0.01em;"><tspan font-size="15">S</tspan><tspan font-size="10.5">N</tspan><tspan font-size="10.5">A</tspan><tspan font-size="10.5">R</tspan><tspan font-size="10.5">E</tspan><tspan font-size="15">D</tspan><tspan font-size="10.5">R</tspan><tspan font-size="10.5">U</tspan><tspan font-size="10.5">M</tspan></text>
<g stroke="#1a1a1a" stroke-width="1.7" stroke-linecap="round"><line x1="510.8" y1="102.7" x2="506.5" y2="107.0"/><line x1="502.2" y1="88.8" x2="496.5" y2="90.7"/><line x1="500.9" y1="72.5" x2="495.0" y2="71.6"/><line x1="507.2" y1="57.4" x2="502.3" y2="53.9"/><line x1="519.6" y1="46.8" x2="516.9" y2="41.5"/><line x1="535.5" y1="43.0" x2="535.5" y2="37.0"/><line x1="551.4" y1="46.8" x2="554.1" y2="41.5"/><line x1="563.8" y1="57.4" x2="568.7" y2="53.9"/><line x1="570.1" y1="72.5" x2="576.0" y2="71.6"/><line x1="568.8" y1="88.8" x2="574.5" y2="90.7"/><line x1="560.2" y1="102.7" x2="564.5" y2="107.0"/></g>
<path d="M535.5 40.8 L532.3 46.56 L538.7 46.56 Z" fill="#111"/>
<text x="535.5" y="20" fill="#1a1a1a" text-anchor="middle" dominant-baseline="central" style="font-family:FreeSans, Liberation Sans, Titillium Web, sans-serif;font-weight:400;letter-spacing:0.01em;"><tspan font-size="15">L</tspan><tspan font-size="10.5">O</tspan><tspan font-size="10.5">W</tspan><tspan font-size="15">T</tspan><tspan font-size="10.5">O</tspan><tspan font-size="10.5">M</tspan></text>
<g stroke="#1a1a1a" stroke-width="1.7" stroke-linecap="round"><line x1="605.3" y1="102.7" x2="601.0" y2="107.0"/><line x1="596.7" y1="88.8" x2="591.0" y2="90.7"/><line x1="595.4" y1="72.5" x2="589.5" y2="71.6"/><line x1="601.7" y1="57.4" x2="596.8" y2="53.9"/><line x1="614.1" y1="46.8" x2="611.4" y2="41.5"/><line x1="630.0" y1="43.0" x2="630.0" y2="37.0"/><line x1="645.9" y1="46.8" x2="648.6" y2="41.5"/><line x1="658.3" y1="57.4" x2="663.2" y2="53.9"/><line x1="664.6" y1="72.5" x2="670.5" y2="71.6"/><line x1="663.3" y1="88.8" x2="669.0" y2="90.7"/><line x1="654.7" y1="102.7" x2="659.0" y2="107.0"/></g>
<path d="M630 40.8 L626.8 46.56 L633.2 46.56 Z" fill="#111"/>
<text x="630" y="20" fill="#1a1a1a" text-anchor="middle" dominant-baseline="central" style="font-family:FreeSans, Liberation Sans, Titillium Web, sans-serif;font-weight:400;letter-spacing:0.01em;"><tspan font-size="15">H</tspan><tspan font-size="10.5">I</tspan><tspan font-size="15">T</tspan><tspan font-size="10.5">O</tspan><tspan font-size="10.5">M</tspan></text>
<g stroke="#1a1a1a" stroke-width="1.7" stroke-linecap="round"><line x1="699.8" y1="102.7" x2="695.5" y2="107.0"/><line x1="691.2" y1="88.8" x2="685.5" y2="90.7"/><line x1="689.9" y1="72.5" x2="684.0" y2="71.6"/><line x1="696.2" y1="57.4" x2="691.3" y2="53.9"/><line x1="708.6" y1="46.8" x2="705.9" y2="41.5"/><line x1="724.5" y1="43.0" x2="724.5" y2="37.0"/><line x1="740.4" y1="46.8" x2="743.1" y2="41.5"/><line x1="752.8" y1="57.4" x2="757.7" y2="53.9"/><line x1="759.1" y1="72.5" x2="765.0" y2="71.6"/><line x1="757.8" y1="88.8" x2="763.5" y2="90.7"/><line x1="749.2" y1="102.7" x2="753.5" y2="107.0"/></g>
<path d="M724.5 40.8 L721.3 46.56 L727.7 46.56 Z" fill="#111"/>
<text x="724.5" y="20" fill="#1a1a1a" text-anchor="middle" dominant-baseline="central" style="font-family:FreeSans, Liberation Sans, Titillium Web, sans-serif;font-weight:400;letter-spacing:0.01em;"><tspan font-size="15">C</tspan><tspan font-size="15">Y</tspan><tspan font-size="10.5">M</tspan><tspan font-size="10.5">B</tspan><tspan font-size="10.5">A</tspan><tspan font-size="10.5">L</tspan></text>
<g stroke="#1a1a1a" stroke-width="1.7" stroke-linecap="round"><line x1="794.3" y1="102.7" x2="790.0" y2="107.0"/><line x1="785.7" y1="88.8" x2="780.0" y2="90.7"/><line x1="784.4" y1="72.5" x2="778.5" y2="71.6"/><line x1="790.7" y1="57.4" x2="785.8" y2="53.9"/><line x1="803.1" y1="46.8" x2="800.4" y2="41.5"/><line x1="819.0" y1="43.0" x2="819.0" y2="37.0"/><line x1="834.9" y1="46.8" x2="837.6" y2="41.5"/><line x1="847.3" y1="57.4" x2="852.2" y2="53.9"/><line x1="853.6" y1="72.5" x2="859.5" y2="71.6"/><line x1="852.3" y1="88.8" x2="858.0" y2="90.7"/><line x1="843.7" y1="102.7" x2="848.0" y2="107.0"/></g>
<path d="M819 40.8 L815.8 46.56 L822.2 46.56 Z" fill="#111"/>
<text x="819" y="20" fill="#1a1a1a" text-anchor="middle" dominant-baseline="central" style="font-family:FreeSans, Liberation Sans, Titillium Web, sans-serif;font-weight:400;letter-spacing:0.01em;"><tspan font-size="15">O</tspan><tspan font-size="10.5">P</tspan><tspan font-size="10.5">E</tspan><tspan font-size="10.5">N</tspan><tspan font-size="15">H</tspan><tspan font-size="10.5">I</tspan><tspan font-size="10.5">H</tspan><tspan font-size="10.5">A</tspan><tspan font-size="10.5">T</tspan></text>
<g stroke="#1a1a1a" stroke-width="1.7" stroke-linecap="round"><line x1="888.8" y1="102.7" x2="884.5" y2="107.0"/><line x1="880.2" y1="88.8" x2="874.5" y2="90.7"/><line x1="878.9" y1="72.5" x2="873.0" y2="71.6"/><line x1="885.2" y1="57.4" x2="880.3" y2="53.9"/><line x1="897.6" y1="46.8" x2="894.9" y2="41.5"/><line x1="913.5" y1="43.0" x2="913.5" y2="37.0"/><line x1="929.4" y1="46.8" x2="932.1" y2="41.5"/><line x1="941.8" y1="57.4" x2="946.7" y2="53.9"/><line x1="948.1" y1="72.5" x2="954.0" y2="71.6"/><line x1="946.8" y1="88.8" x2="952.5" y2="90.7"/><line x1="938.2" y1="102.7" x2="942.5" y2="107.0"/></g>
<path d="M913.5 40.8 L910.3 46.56 L916.7 46.56 Z" fill="#111"/>
<text x="913.5" y="20" fill="#1a1a1a" text-anchor="middle" dominant-baseline="central" style="font-family:FreeSans, Liberation Sans, Titillium Web, sans-serif;font-weight:400;letter-spacing:0.01em;"><tspan font-size="15">C</tspan><tspan font-size="10.5">L</tspan><tspan font-size="10.5">S</tspan><tspan font-size="15">'</tspan><tspan font-size="10.5">D</tspan><tspan font-size="15">H</tspan><tspan font-size="10.5">I</tspan><tspan font-size="10.5">H</tspan><tspan font-size="10.5">A</tspan><tspan font-size="10.5">T</tspan></text>
<g stroke="#1a1a1a" stroke-width="1.7" stroke-linecap="round"><line x1="983.3" y1="102.7" x2="979.0" y2="107.0"/><line x1="974.7" y1="88.8" x2="969.0" y2="90.7"/><line x1="973.4" y1="72.5" x2="967.5" y2="71.6"/><line x1="979.7" y1="57.4" x2="974.8" y2="53.9"/><line x1="992.1" y1="46.8" x2="989.4" y2="41.5"/><line x1="1008.0" y1="43.0" x2="1008.0" y2="37.0"/><line x1="1023.9" y1="46.8" x2="1026.6" y2="41.5"/><line x1="1036.3" y1="57.4" x2="1041.2" y2="53.9"/><line x1="1042.6" y1="72.5" x2="1048.5" y2="71.6"/><line x1="1041.3" y1="88.8" x2="1047.0" y2="90.7"/><line x1="1032.7" y1="102.7" x2="1037.0" y2="107.0"/></g>
<path d="M1008 40.8 L1004.8 46.56 L1011.2 46.56 Z" fill="#111"/>
<text x="1008" y="20" fill="#1a1a1a" text-anchor="middle" dominant-baseline="central" style="font-family:FreeSans, Liberation Sans, Titillium Web, sans-serif;font-weight:400;letter-spacing:0.01em;"><tspan font-size="10.5">H</tspan><tspan font-size="10.5">A</tspan><tspan font-size="10.5">N</tspan><tspan font-size="10.5">D</tspan><tspan font-size="15">C</tspan><tspan font-size="10.5">L</tspan><tspan font-size="10.5">A</tspan><tspan font-size="15">P</tspan></text>
<text x="535.5" y="166" font-size="9" fill="#1a1a1a" text-anchor="middle" dominant-baseline="central" style="font-family:FreeSans, Liberation Sans, Titillium Web, sans-serif;font-weight:700;letter-spacing:0em;">(SNARE)</text>
<g stroke="#1a1a1a" stroke-width="1.6" stroke-linecap="round"><line x1="323.9" y1="248.6" x2="319.6" y2="252.9"/><line x1="316.1" y1="235.9" x2="310.4" y2="237.7"/><line x1="314.9" y1="221.0" x2="309.0" y2="220.1"/><line x1="320.6" y1="207.2" x2="315.8" y2="203.7"/><line x1="332.0" y1="197.5" x2="329.2" y2="192.1"/><line x1="346.5" y1="194.0" x2="346.5" y2="188.0"/><line x1="361.0" y1="197.5" x2="363.8" y2="192.1"/><line x1="372.4" y1="207.2" x2="377.2" y2="203.7"/><line x1="378.1" y1="221.0" x2="384.0" y2="220.1"/><line x1="376.9" y1="235.9" x2="382.6" y2="237.7"/><line x1="369.1" y1="248.6" x2="373.4" y2="252.9"/></g>
<g stroke="#1a1a1a" stroke-width="1.6" stroke-linecap="round"><line x1="418.4" y1="248.6" x2="414.1" y2="252.9"/><line x1="410.6" y1="235.9" x2="404.9" y2="237.7"/><line x1="409.4" y1="221.0" x2="403.5" y2="220.1"/><line x1="415.1" y1="207.2" x2="410.3" y2="203.7"/><line x1="426.5" y1="197.5" x2="423.7" y2="192.1"/><line x1="441.0" y1="194.0" x2="441.0" y2="188.0"/><line x1="455.5" y1="197.5" x2="458.3" y2="192.1"/><line x1="466.9" y1="207.2" x2="471.7" y2="203.7"/><line x1="472.6" y1="221.0" x2="478.5" y2="220.1"/><line x1="471.4" y1="235.9" x2="477.1" y2="237.7"/><line x1="463.6" y1="248.6" x2="467.9" y2="252.9"/></g>
<g stroke="#1a1a1a" stroke-width="1.6" stroke-linecap="round"><line x1="512.9" y1="248.6" x2="508.6" y2="252.9"/><line x1="505.1" y1="235.9" x2="499.4" y2="237.7"/><line x1="503.9" y1="221.0" x2="498.0" y2="220.1"/><line x1="509.6" y1="207.2" x2="504.8" y2="203.7"/><line x1="521.0" y1="197.5" x2="518.2" y2="192.1"/><line x1="535.5" y1="194.0" x2="535.5" y2="188.0"/><line x1="550.0" y1="197.5" x2="552.8" y2="192.1"/><line x1="561.4" y1="207.2" x2="566.2" y2="203.7"/><line x1="567.1" y1="221.0" x2="573.0" y2="220.1"/><line x1="565.9" y1="235.9" x2="571.6" y2="237.7"/><line x1="558.1" y1="248.6" x2="562.4" y2="252.9"/></g>
<g stroke="#1a1a1a" stroke-width="1.6" stroke-linecap="round"><line x1="985.4" y1="248.6" x2="981.1" y2="252.9"/><line x1="977.6" y1="235.9" x2="971.9" y2="237.7"/><line x1="976.4" y1="221.0" x2="970.5" y2="220.1"/><line x1="982.1" y1="207.2" x2="977.3" y2="203.7"/><line x1="993.5" y1="197.5" x2="990.7" y2="192.1"/><line x1="1008.0" y1="194.0" x2="1008.0" y2="188.0"/><line x1="1022.5" y1="197.5" x2="1025.3" y2="192.1"/><line x1="1033.9" y1="207.2" x2="1038.7" y2="203.7"/><line x1="1039.6" y1="221.0" x2="1045.5" y2="220.1"/><line x1="1038.4" y1="235.9" x2="1044.1" y2="237.7"/><line x1="1030.6" y1="248.6" x2="1034.9" y2="252.9"/></g>
<text x="866.25" y="182" font-size="12" fill="#1a1a1a" text-anchor="middle" dominant-baseline="central" style="font-family:FreeSans, Liberation Sans, Titillium Web, sans-serif;font-weight:700;letter-spacing:0em;">HIHAT CHOKE</text>
<text x="150" y="196" font-size="40" fill="#1d1d1d" text-anchor="middle" dominant-baseline="central" style="font-family:FreeSans, Liberation Sans, Titillium Web, sans-serif;font-weight:400;letter-spacing:0.03em;" transform="translate(150 0) scale(0.9 1) translate(-150 0)">6W6</text>
<line x1="40" y1="218" x2="200" y2="218" stroke="#1d1d1d" stroke-width="1.6"/>
<text x="120" y="238" font-size="18" fill="#1d1d1d" text-anchor="middle" dominant-baseline="central" style="font-family:FreeSans, Liberation Sans, Titillium Web, sans-serif;font-weight:400;letter-spacing:0em;">Computer Controlled</text>
<text x="346.5" y="176" font-size="13" fill="#1a1a1a" text-anchor="middle" dominant-baseline="central" style="font-family:FreeSans, Liberation Sans, Titillium Web, sans-serif;font-weight:400;letter-spacing:0em;">ATTACK</text>
<text x="441" y="176" font-size="13" fill="#1a1a1a" text-anchor="middle" dominant-baseline="central" style="font-family:FreeSans, Liberation Sans, Titillium Web, sans-serif;font-weight:400;letter-spacing:0em;">TONE</text>
<text x="535.5" y="176" font-size="13" fill="#1a1a1a" text-anchor="middle" dominant-baseline="central" style="font-family:FreeSans, Liberation Sans, Titillium Web, sans-serif;font-weight:400;letter-spacing:0em;">SNAPPY</text>
<text x="1008" y="176" font-size="13" fill="#1a1a1a" text-anchor="middle" dominant-baseline="central" style="font-family:FreeSans, Liberation Sans, Titillium Web, sans-serif;font-weight:400;letter-spacing:0em;">NOISE</text>
</svg>